<?xml version="1.0" encoding="utf-8"?>
<!-- Generator: Adobe Illustrator 23.1.0, SVG Export Plug-In . SVG Version: 6.00 Build 0)  -->
<svg version="1.1" xmlns="http://www.w3.org/2000/svg" xmlns:xlink="http://www.w3.org/1999/xlink" x="0px" y="0px"
	 viewBox="0 0 400.65 525.58" style="enable-background:new 0 0 400.65 525.58;" xml:space="preserve">
<style type="text/css">
	.Styl_x0020_grafiki{fill:#E84A24;}
	.st0{display:none;}
	.st1{display:inline;fill:#E84A24;}
	.st2{display:inline;}
	.st3{display:inline;fill:#FFFFFF;}
	.st4{fill:none;stroke:#000000;stroke-width:4;stroke-miterlimit:10;}
</style>
<g id="obrys_kopia" class="st0">
	<path class="st1" d="M256.26,68.9c25.21,5.27,49.29,6.19,60.39,8.13c6.58-4.26,11.81-22.06,70.84-29.81
		c-25.74,60.19-42.58,54-51.87,59.61c6.32,5.55-2.13,71.81-14.71,77.03C315.61,134.71,262.98,73.84,256.26,68.9z"/>
	<path class="st1" d="M285.68,73.74c1.55-12,2.71-36,33.29-51.68c2.9,18.19-8.55,51.29-13.58,53.61"/>
	<path class="st1" d="M116.65,372.97c-4.42-15.68-16.19-81.87-6.71-120.19C-47.23,226.06,119.23,35.61,10.84,8.9
		c52.26,2.71,105.47,48.13,111.1,118.84c2.71,34.06-21.11,63.85-5.29,113.42c35.48-12.19,82.13-28.06,96.97-32.97
		c-6.14,12.13-12.14,64.9,8.01,93.03c-23.24-16.52-51.33-6.05-58.35-4.35C154.26,311.42,123.29,340.45,116.65,372.97z"/>
	<g id="Warstwa_4" class="st2">
	</g>
	<path class="st3" d="M244.66,323.33c12.23,8.02,29.19,6.58,42.18,1.05c16.06-6.84,33.53-21.05,39.55-43.8
		c8.17-30.89,2.1-56.59-5.48-96.71c-11.48-60.77-57.73-124.29-76.33-116.88c-11.28,4.49,17.23,36.49,27.75,73.3
		c-18.64,3.19-52.16,46.06-58.7,67.9C206.45,232.13,199.72,293.85,244.66,323.33z"/>
	<path class="st3" d="M10.84,8.9c38.06,9.38,42.23,38.95,38.42,74.53c19.71-0.45,36.9-11.09,46.49-26.88
		C74.19,27.7,42.34,10.54,10.84,8.9z"/>
</g>
<g id="obrys">
	<path class="st4" d="M275.1,170.84c4.39-11.61,0.73-20.91-4.9-36.9c-11.34-32.18-35.62-61.34-24.78-67.53
		c11.09-6.33,61.96,50.21,75.49,117.47c2.71,13.48,37.55,104.9-34.06,140.52"/>
	<path class="st4" d="M255.58,69.1c15.1,4.65,49.97,6,61.06,7.93c6.58-4.26,11.81-22.06,70.84-29.81
		c-25.74,60.19-42.58,54-51.87,59.61c6.32,5.55-1.16,67.35-14.71,77.03"/>
	<path class="st4" d="M285.68,73.74c1.55-12,2.71-36,33.29-51.68c2.9,18.19-8.55,51.29-13.58,53.61"/>
	<path class="st4" d="M272.32,140.29c-58.7,29.26-64.66,89.15-64.66,105.41c0,13.42,2.52,56.23,34.41,76.11
		c19.87,12.39,34.6,26.5,38.53,39.48c6.71,22.19-19.92,30.84-30.53,8"/>
	<line class="st4" x1="296.53" y1="319.58" x2="296.53" y2="431.74"/>
	<path class="st4" d="M161.57,298.4c0,0,39.88-14.92,60.06,2.83"/>
	<path class="st4" d="M172.39,268.62c0,0-3.87,27.56-26.32,50.95s-29.42,52.36-29.42,63.17"/>
	<path class="st4" d="M213.62,208.19c0,0-61.49,20.77-96.97,32.97c-15.82-49.57,8-79.35,5.29-113.42
		C116.31,57.03,63.1,11.61,10.84,8.9c108.39,26.71-58.06,217.16,99.1,243.87c-14.32,39.76,16.26,178.97,16.26,178.97"/>
	<path class="st4" d="M111.37,347.82c-31.88-0.01-46.08,83.93-46.08,83.93"/>
	<g>
		<path d="M56.49,468.64v-32.96h10.51c2.02,0,3.77,0.2,5.23,0.6c1.46,0.4,2.67,0.97,3.61,1.7c0.94,0.74,1.64,1.64,2.09,2.7
			c0.45,1.07,0.68,2.26,0.68,3.6c0,0.81-0.13,1.6-0.38,2.35s-0.64,1.45-1.15,2.09c-0.51,0.64-1.16,1.22-1.93,1.72
			c-0.77,0.51-1.68,0.92-2.73,1.24c2.41,0.48,4.22,1.34,5.45,2.6c1.23,1.26,1.84,2.91,1.84,4.97c0,1.4-0.26,2.67-0.77,3.82
			c-0.51,1.15-1.27,2.14-2.25,2.97c-0.99,0.83-2.2,1.47-3.63,1.92c-1.43,0.45-3.07,0.68-4.91,0.68H56.49z M60.96,450.45h5.89
			c1.26,0,2.35-0.14,3.27-0.41c0.92-0.28,1.68-0.66,2.29-1.15c0.61-0.49,1.05-1.08,1.35-1.78c0.29-0.7,0.44-1.46,0.44-2.29
			c0-1.93-0.58-3.35-1.75-4.25c-1.17-0.9-2.97-1.36-5.43-1.36h-6.05V450.45z M60.96,453.63v11.48h7.13c1.27,0,2.36-0.15,3.28-0.44
			c0.91-0.29,1.66-0.7,2.25-1.23c0.59-0.53,1.02-1.16,1.3-1.89c0.28-0.73,0.41-1.53,0.41-2.4c0-1.7-0.6-3.05-1.81-4.04
			c-1.2-0.99-3.02-1.48-5.46-1.48H60.96z"/>
		<path d="M124.25,455.53v13.11h-4.44v-13.11l-12.07-19.85h3.91c0.4,0,0.71,0.1,0.94,0.3s0.43,0.45,0.6,0.74l7.54,12.81
			c0.31,0.54,0.56,1.04,0.77,1.52s0.39,0.94,0.56,1.4c0.17-0.47,0.35-0.95,0.55-1.43c0.2-0.47,0.45-0.97,0.76-1.5l7.52-12.81
			c0.14-0.25,0.33-0.48,0.56-0.7c0.24-0.22,0.55-0.33,0.93-0.33h3.96L124.25,455.53z"/>
		<path d="M182.67,440.84c-0.14,0.23-0.28,0.4-0.44,0.52c-0.15,0.11-0.35,0.17-0.6,0.17c-0.26,0-0.56-0.13-0.91-0.39
			c-0.34-0.26-0.78-0.55-1.31-0.86c-0.53-0.31-1.17-0.6-1.91-0.86c-0.74-0.26-1.64-0.39-2.7-0.39c-1,0-1.88,0.13-2.65,0.4
			c-0.77,0.27-1.41,0.63-1.92,1.09c-0.51,0.46-0.9,1-1.16,1.62s-0.39,1.29-0.39,2.01c0,0.92,0.23,1.68,0.68,2.29
			c0.45,0.61,1.05,1.12,1.79,1.55c0.74,0.43,1.59,0.8,2.53,1.12c0.94,0.31,1.91,0.64,2.9,0.98c0.99,0.34,1.96,0.72,2.9,1.14
			c0.94,0.42,1.79,0.96,2.53,1.6c0.74,0.64,1.34,1.43,1.79,2.37c0.45,0.94,0.68,2.09,0.68,3.45c0,1.44-0.25,2.79-0.74,4.06
			c-0.49,1.26-1.21,2.37-2.15,3.3c-0.94,0.93-2.1,1.67-3.47,2.21c-1.37,0.54-2.93,0.8-4.68,0.8c-2.13,0-4.08-0.39-5.83-1.16
			c-1.76-0.77-3.25-1.82-4.5-3.14l1.29-2.12c0.12-0.17,0.27-0.31,0.45-0.43s0.37-0.17,0.59-0.17c0.32,0,0.69,0.17,1.1,0.52
			c0.41,0.35,0.93,0.72,1.55,1.14s1.37,0.79,2.25,1.14s1.96,0.52,3.23,0.52c1.06,0,2-0.15,2.83-0.44c0.83-0.29,1.53-0.7,2.1-1.23
			c0.58-0.53,1.02-1.16,1.32-1.9c0.31-0.74,0.46-1.56,0.46-2.46c0-1-0.23-1.81-0.68-2.45c-0.45-0.64-1.05-1.17-1.78-1.6
			c-0.74-0.43-1.58-0.79-2.52-1.09c-0.94-0.3-1.91-0.61-2.9-0.92c-0.99-0.31-1.96-0.68-2.9-1.09c-0.94-0.41-1.78-0.95-2.52-1.61
			c-0.74-0.66-1.33-1.48-1.78-2.47c-0.45-0.99-0.68-2.21-0.68-3.67c0-1.17,0.23-2.29,0.68-3.38c0.45-1.09,1.11-2.05,1.97-2.9
			c0.86-0.84,1.92-1.52,3.19-2.02c1.27-0.51,2.72-0.76,4.36-0.76c1.84,0,3.52,0.29,5.04,0.87c1.52,0.58,2.84,1.43,3.98,2.53
			L182.67,440.84z"/>
		<path d="M237.92,435.69v3.75h-10.65v29.21h-4.46v-29.21h-10.7v-3.75H237.92z"/>
		<path d="M272.81,454.89v13.75h-4.44v-32.96h9.32c2.08,0,3.89,0.21,5.4,0.63c1.52,0.42,2.77,1.03,3.76,1.83
			c0.99,0.8,1.72,1.76,2.2,2.89s0.71,2.39,0.71,3.78c0,1.17-0.18,2.25-0.55,3.27c-0.37,1.01-0.9,1.92-1.6,2.72
			c-0.7,0.81-1.55,1.49-2.55,2.06c-1,0.57-2.14,1-3.42,1.29c0.55,0.32,1.04,0.79,1.47,1.4l9.61,13.09h-3.96
			c-0.81,0-1.41-0.31-1.79-0.94l-8.56-11.78c-0.26-0.37-0.54-0.63-0.85-0.79s-0.77-0.24-1.38-0.24H272.81z M272.81,451.65h4.67
			c1.3,0,2.45-0.16,3.44-0.47c0.99-0.31,1.82-0.76,2.48-1.33s1.17-1.26,1.51-2.06c0.34-0.8,0.51-1.68,0.51-2.64
			c0-1.96-0.65-3.44-1.94-4.44c-1.3-1-3.22-1.5-5.78-1.5h-4.88V451.65z"/>
		<path d="M335.53,455.53v13.11h-4.44v-13.11l-12.08-19.85h3.91c0.4,0,0.71,0.1,0.94,0.3c0.23,0.2,0.43,0.45,0.6,0.74l7.54,12.81
			c0.31,0.54,0.56,1.04,0.77,1.52s0.39,0.94,0.56,1.4c0.17-0.47,0.35-0.95,0.55-1.43c0.2-0.47,0.45-0.97,0.76-1.5l7.52-12.81
			c0.14-0.25,0.33-0.48,0.56-0.7c0.24-0.22,0.55-0.33,0.93-0.33h3.96L335.53,455.53z"/>
		<path d="M97.89,510.9h14.26v3.75H93.43v-32.96h4.46V510.9z"/>
		<path d="M147.67,514.64h-4.46v-32.96h4.46V514.64z"/>
		<path d="M198.68,486.84c-0.14,0.23-0.28,0.4-0.44,0.52c-0.15,0.11-0.35,0.17-0.6,0.17c-0.26,0-0.56-0.13-0.91-0.39
			c-0.34-0.26-0.78-0.55-1.31-0.86c-0.53-0.31-1.17-0.6-1.91-0.86c-0.74-0.26-1.64-0.39-2.7-0.39c-1,0-1.88,0.13-2.65,0.4
			c-0.77,0.27-1.41,0.63-1.92,1.09c-0.51,0.46-0.9,1-1.16,1.62s-0.39,1.29-0.39,2.01c0,0.92,0.23,1.68,0.68,2.29
			c0.45,0.61,1.05,1.12,1.79,1.55c0.74,0.43,1.59,0.8,2.53,1.12c0.94,0.31,1.91,0.64,2.9,0.98c0.99,0.34,1.96,0.72,2.9,1.14
			c0.94,0.42,1.79,0.96,2.53,1.6c0.74,0.64,1.34,1.43,1.79,2.37c0.45,0.94,0.68,2.09,0.68,3.45c0,1.44-0.25,2.79-0.74,4.06
			c-0.49,1.26-1.21,2.37-2.15,3.3c-0.94,0.93-2.1,1.67-3.47,2.21c-1.37,0.54-2.93,0.8-4.68,0.8c-2.13,0-4.08-0.39-5.83-1.16
			c-1.76-0.77-3.25-1.82-4.5-3.14l1.29-2.12c0.12-0.17,0.27-0.31,0.45-0.43s0.37-0.17,0.59-0.17c0.32,0,0.69,0.17,1.1,0.52
			c0.41,0.35,0.93,0.72,1.55,1.14s1.37,0.79,2.25,1.14s1.96,0.52,3.23,0.52c1.06,0,2-0.15,2.83-0.44c0.83-0.29,1.53-0.7,2.1-1.23
			c0.58-0.53,1.02-1.16,1.32-1.9c0.31-0.74,0.46-1.56,0.46-2.46c0-1-0.22-1.81-0.68-2.45c-0.45-0.64-1.05-1.17-1.78-1.6
			c-0.74-0.43-1.58-0.79-2.52-1.09c-0.94-0.3-1.91-0.61-2.9-0.92c-0.99-0.31-1.96-0.68-2.9-1.09c-0.94-0.41-1.78-0.95-2.52-1.61
			c-0.74-0.66-1.33-1.48-1.78-2.47c-0.45-0.99-0.68-2.21-0.68-3.67c0-1.17,0.23-2.29,0.68-3.38c0.45-1.09,1.11-2.05,1.97-2.9
			c0.86-0.84,1.92-1.52,3.19-2.02c1.27-0.51,2.72-0.76,4.36-0.76c1.84,0,3.52,0.29,5.04,0.87c1.52,0.58,2.84,1.43,3.98,2.53
			L198.68,486.84z"/>
		<path d="M251.79,481.69v3.63h-15.82v10.95h12.81v3.5h-12.81v11.25h15.82v3.63h-20.31v-32.96H251.79z"/>
		<path d="M288.4,496.13h1.68c0.58,0,1.05-0.07,1.39-0.22s0.67-0.39,0.98-0.75l10.97-12.42c0.34-0.38,0.66-0.66,0.98-0.82
			s0.72-0.24,1.21-0.24h3.79l-12.56,14.19c-0.32,0.35-0.63,0.65-0.91,0.9c-0.28,0.25-0.59,0.45-0.91,0.6
			c0.43,0.14,0.8,0.35,1.13,0.62c0.32,0.28,0.66,0.62,1.01,1.04l13.11,15.62h-3.86c-0.29,0-0.54-0.02-0.74-0.07
			s-0.37-0.11-0.52-0.18c-0.15-0.08-0.28-0.18-0.4-0.3s-0.25-0.25-0.37-0.39L293,500.61c-0.17-0.18-0.33-0.34-0.47-0.47
			c-0.15-0.13-0.31-0.24-0.51-0.33s-0.41-0.16-0.67-0.2s-0.56-0.06-0.93-0.06h-2.02v15.09h-4.44v-32.96h4.44V496.13z"/>
	</g>
</g>
</svg>
