<?xml version="1.0" standalone="no"?>
<!DOCTYPE svg PUBLIC "-//W3C//DTD SVG 1.0//EN" "http://www.w3.org/TR/2001/REC-SVG-20010904/DTD/svg10.dtd">
<svg xmlns="http://www.w3.org/2000/svg" xmlns:xlink="http://www.w3.org/1999/xlink" id="body_1" width="24" height="24">

<g transform="matrix(0.48 0 0 0.48 0 0)">
	<g transform="matrix(1 0 0 1 0 0)">
	</g>
    <path transform="matrix(1 0 0 1 0 0)"  d="M25 3C 12.863281 3 3 12.863281 3 25C 3 36.01953 11.128906 45.13672 21.714844 46.73047L21.714844 46.73047L22.863281 46.902344L22.863281 29.566406L17.664062 29.566406L17.664062 26.046875L22.863281 26.046875L22.863281 21.371094C 22.863281 18.496094 23.550781 16.597656 24.695312 15.410156C 25.839844 14.222656 27.527344 13.621094 29.878906 13.621094C 31.757812 13.621094 32.48828 13.734375 33.183594 13.820312L33.183594 13.820312L33.183594 16.699219L30.738281 16.699219C 29.351562 16.699219 28.210938 17.476562 27.617188 18.507812C 27.027344 19.539062 26.84375 20.773438 26.84375 22.027344L26.84375 22.027344L26.84375 26.042969L32.964844 26.042969L32.421875 29.566406L26.84375 29.566406L26.84375 46.929688L27.976562 46.777344C 38.714844 45.320312 47 36.125 47 25C 47 12.863281 37.13672 3 25 3zM25 5C 36.058594 5 45 13.941406 45 25C 45 34.73047 38.035156 42.73047 28.84375 44.535156L28.84375 44.535156L28.84375 31.566406L34.13672 31.566406L35.296875 24.042969L28.84375 24.042969L28.84375 22.027344C 28.84375 20.988281 29.035156 20.058594 29.351562 19.5C 29.671875 18.945312 29.980469 18.699219 30.738281 18.699219L30.738281 18.699219L35.183594 18.699219L35.183594 12.007812L34.316406 11.890625C 33.71875 11.8125 32.347656 11.621094 29.878906 11.621094C 27.175781 11.621094 24.855469 12.359375 23.253906 14.023438C 21.652344 15.6875 20.859375 18.171875 20.859375 21.371094L20.859375 21.371094L20.859375 24.046875L15.664062 24.046875L15.664062 31.566406L20.859375 31.566406L20.859375 44.46875C 11.816406 42.554688 5 34.625 5 25C 5 13.941406 13.941406 5 25 5z" stroke="none" fill="#FFFFFF" fill-rule="nonzero" />
</g>
</svg>